<?xml version="1.0" encoding="utf-8"?>
<!-- Generator: Adobe Illustrator 16.0.0, SVG Export Plug-In . SVG Version: 6.00 Build 0)  -->
<!DOCTYPE svg PUBLIC "-//W3C//DTD SVG 1.1//EN" "http://www.w3.org/Graphics/SVG/1.1/DTD/svg11.dtd">
<svg version="1.1" id="Layer_1" xmlns="http://www.w3.org/2000/svg" xmlns:xlink="http://www.w3.org/1999/xlink" x="0px" y="0px"
	 width="164.787px" height="46.889px" viewBox="0 0 164.787 46.889" enable-background="new 0 0 164.787 46.889"
	 xml:space="preserve">
<g>
	<g>
		<g>
			<g>
				<g>
					<path fill="#FFFFFF" d="M17.132,33.693c-1.987,1.986-4.352,2.98-7.095,2.98c-2.743,0-5.085-0.971-7.023-2.909
						c-1.938-1.94-2.908-4.281-2.908-7.024c0-2.741,0.97-5.083,2.908-7.022c1.938-1.939,4.28-2.908,7.023-2.908
						c2.743,0,5.083,0.969,7.023,2.908c1.938,1.939,2.909,4.281,2.909,7.022v8.514c0,0.392-0.14,0.725-0.417,1.003
						c-0.278,0.276-0.611,0.417-1.002,0.417c-0.39,0-0.724-0.141-1.002-0.417c-0.278-0.278-0.416-0.611-0.416-1.003V33.693z
						 M10.038,19.645c-1.964,0-3.636,0.693-5.019,2.076c-1.385,1.384-2.075,3.057-2.075,5.019c0,1.964,0.69,3.636,2.075,5.021
						c1.383,1.384,3.055,2.075,5.019,2.075c1.962,0,3.636-0.691,5.02-2.075c1.383-1.385,2.075-3.057,2.075-5.021
						c0-1.962-0.692-3.635-2.075-5.019C13.673,20.339,12,19.645,10.038,19.645z"/>
				</g>
				<g>
					<path fill="#FFFFFF" d="M22.808,9.714c0-0.389,0.138-0.724,0.416-1.001c0.279-0.277,0.614-0.416,1.002-0.416
						c0.391,0,0.724,0.139,1.003,0.416c0.277,0.278,0.416,0.612,0.416,1.001v24.121h1.418c0.391,0,0.725,0.138,1.003,0.415
						c0.278,0.278,0.417,0.613,0.417,1.003c0,0.392-0.139,0.725-0.417,1.003c-0.279,0.276-0.612,0.417-1.003,0.417h-2.837
						c-0.389,0-0.724-0.141-1.002-0.417c-0.278-0.278-0.416-0.611-0.416-1.003V9.714z"/>
				</g>
				<g>
					<path fill="#FFFFFF" d="M38.68,33.835c0.39,0,0.724,0.138,1.002,0.415c0.278,0.278,0.417,0.613,0.417,1.003
						c0,0.392-0.139,0.725-0.417,1.003c-0.278,0.276-0.612,0.417-1.002,0.417c-4.729,0-7.095-2.364-7.095-7.095v-9.933h-1.418
						c-0.392,0-0.725-0.138-1.002-0.415c-0.28-0.278-0.417-0.613-0.417-1.002s0.137-0.725,0.417-1.002
						c0.277-0.278,0.61-0.417,1.002-0.417h1.418V9.714c0-0.389,0.139-0.724,0.417-1.001c0.276-0.277,0.611-0.416,1.002-0.416
						c0.39,0,0.723,0.139,1.001,0.416c0.277,0.278,0.417,0.612,0.417,1.001v7.095h2.856c0.389,0,0.723,0.139,1.001,0.417
						c0.277,0.277,0.417,0.612,0.417,1.002s-0.139,0.725-0.417,1.002c-0.279,0.277-0.612,0.415-1.001,0.415h-2.856v9.933
						C34.424,32.416,35.843,33.835,38.68,33.835z"/>
				</g>
				<g>
					<path fill="#FFFFFF" d="M58.331,31.848c0.391,0,0.724,0.14,1.002,0.417c0.278,0.278,0.417,0.613,0.417,1.001
						c0,0.391-0.137,0.729-0.409,1.012c-1.833,1.596-3.989,2.396-6.474,2.396c-2.743,0-5.084-0.971-7.023-2.909
						c-1.938-1.94-2.908-4.281-2.908-7.024c0-2.741,0.97-5.083,2.908-7.022c1.939-1.939,4.28-2.908,7.023-2.908
						c2.744,0,5.085,0.969,7.023,2.908c1.938,1.939,2.909,4.281,2.909,7.022c0,0.391-0.139,0.727-0.417,1.003
						c-0.278,0.278-0.611,0.418-1.002,0.418H45.899c0.259,1.359,0.909,2.559,1.95,3.6c1.383,1.384,3.056,2.075,5.019,2.075
						c1.774,0,3.299-0.562,4.577-1.687C57.705,31.948,58,31.848,58.331,31.848z M59.838,25.323c-0.26-1.361-0.91-2.562-1.95-3.603
						c-1.384-1.382-3.056-2.076-5.02-2.076c-1.962,0-3.636,0.693-5.019,2.076c-1.041,1.04-1.691,2.241-1.95,3.603H59.838z"/>
				</g>
				<g>
					<path fill="#FFFFFF" d="M65.638,18.228c0-0.39,0.139-0.725,0.417-1.002c0.276-0.278,0.611-0.417,1.001-0.417
						c0.392,0,0.725,0.139,1.002,0.417c0.277,0.277,0.417,0.612,0.417,1.002v1.561c1.986-1.987,4.351-2.98,7.095-2.98
						c1.383,0,2.654,0.237,3.811,0.71c0.215,0.082,0.409,0.206,0.587,0.372c0.272,0.283,0.409,0.621,0.409,1.011
						s-0.14,0.724-0.417,1.001c-0.279,0.277-0.612,0.417-1.002,0.417c-0.225,0-0.432-0.046-0.621-0.142
						c-0.839-0.354-1.763-0.533-2.766-0.533c-1.964,0-3.636,0.693-5.02,2.076c-1.384,1.384-2.075,3.057-2.075,5.019v8.514
						c0,0.392-0.139,0.725-0.417,1.003c-0.278,0.276-0.611,0.417-1.002,0.417c-0.39,0-0.725-0.141-1.001-0.417
						c-0.278-0.278-0.417-0.611-0.417-1.003V18.228z"/>
				</g>
				<g>
					<path fill="#FFFFFF" d="M98.059,31.848c0.39,0,0.724,0.14,1.003,0.417c0.275,0.278,0.416,0.613,0.416,1.001
						c0,0.391-0.139,0.729-0.408,1.012c-1.834,1.596-3.991,2.396-6.474,2.396c-2.744,0-5.084-0.971-7.021-2.909
						c-1.94-1.94-2.911-4.281-2.911-7.024c0-2.741,0.971-5.083,2.911-7.022c1.938-1.939,4.277-2.908,7.021-2.908
						c2.743,0,5.085,0.969,7.022,2.908c1.938,1.939,2.909,4.281,2.909,7.022c0,0.391-0.139,0.727-0.416,1.003
						c-0.278,0.278-0.612,0.418-1.003,0.418H85.625c0.261,1.359,0.91,2.559,1.951,3.6c1.385,1.384,3.055,2.075,5.02,2.075
						c1.774,0,3.3-0.562,4.576-1.687C97.433,31.948,97.726,31.848,98.059,31.848z M99.565,25.323
						c-0.261-1.361-0.91-2.562-1.949-3.603c-1.383-1.382-3.058-2.076-5.021-2.076c-1.965,0-3.635,0.693-5.02,2.076
						c-1.041,1.04-1.69,2.241-1.951,3.603H99.565z"/>
				</g>
				<g>
					<path fill="#FFFFFF" d="M122.391,33.693c-0.022,0.024-0.047,0.048-0.069,0.071c-1.94,1.938-4.281,2.909-7.023,2.909
						c-2.744,0-5.086-0.971-7.024-2.909c-1.938-1.94-2.91-4.281-2.91-7.024c0-2.741,0.973-5.083,2.91-7.022
						c1.938-1.939,4.28-2.908,7.024-2.908c2.742,0,5.083,0.969,7.023,2.908c1.938,1.939,2.908,4.281,2.908,7.022v9.934
						c0,2.067-0.746,3.864-2.234,5.391c-2.082,2.082-4.595,3.121-7.538,3.121c-2.944,0-5.451-1.039-7.521-3.121
						c-0.769-0.757-1.396-1.578-1.881-2.465c-0.141-0.213-0.211-0.46-0.211-0.744c0-0.392,0.138-0.725,0.416-1.001
						c0.277-0.279,0.611-0.418,1.002-0.418c0.389,0,0.727,0.135,1.011,0.406c0.118,0.131,0.218,0.273,0.303,0.427
						c0.353,0.638,0.809,1.234,1.364,1.791c1.525,1.525,3.363,2.289,5.517,2.289c2.15,0,3.991-0.764,5.516-2.289
						c0.945-1.137,1.418-2.265,1.418-3.387V33.693z M115.298,19.645c-1.964,0-3.637,0.693-5.02,2.076
						c-1.384,1.384-2.075,3.057-2.075,5.019c0,1.964,0.691,3.636,2.075,5.021c1.383,1.384,3.056,2.075,5.02,2.075
						c1.962,0,3.635-0.691,5.019-2.075c1.383-1.385,2.074-3.057,2.074-5.021c0-1.962-0.691-3.635-2.074-5.019
						C118.933,20.339,117.26,19.645,115.298,19.645z"/>
				</g>
				<g>
					<path fill="#FFFFFF" d="M147.931,26.74c0,2.743-0.971,5.084-2.91,7.024c-1.939,1.938-4.279,2.909-7.022,2.909
						c-2.744,0-5.084-0.971-7.022-2.909c-1.94-1.94-2.908-4.281-2.908-7.024c0-2.741,0.968-5.083,2.908-7.022
						c1.938-1.939,4.278-2.908,7.022-2.908c2.743,0,5.083,0.969,7.022,2.908C146.96,21.656,147.931,23.998,147.931,26.74z
						 M137.998,19.645c-1.964,0-3.635,0.693-5.019,2.076c-1.383,1.384-2.076,3.057-2.076,5.019c0,1.964,0.693,3.636,2.076,5.021
						c1.384,1.384,3.055,2.075,5.019,2.075c1.962,0,3.636-0.691,5.02-2.075c1.384-1.385,2.074-3.057,2.074-5.021
						c0-1.962-0.69-3.635-2.074-5.019C141.634,20.339,139.96,19.645,137.998,19.645z"/>
				</g>
			</g>
		</g>
		<g>
			<g>
				<g>
					<path fill="#FFFFFF" d="M154.93,25.849c-0.638,0-1.191-0.476-1.274-1.123c-0.815-6.421-5.593-11.773-11.88-13.316
						c-0.689-0.169-1.111-0.865-0.941-1.555c0.168-0.689,0.864-1.112,1.554-0.943c7.315,1.795,12.869,8.02,13.82,15.489
						c0.089,0.703-0.408,1.348-1.113,1.438C155.039,25.846,154.984,25.849,154.93,25.849z"/>
				</g>
			</g>
			<g>
				<g>
					<path fill="#FFFFFF" d="M162.075,25.994c-1.149,0-2.146-0.855-2.291-2.027c-1.163-9.233-8.061-16.748-17.162-18.696
						c-1.25-0.269-2.046-1.499-1.779-2.749c0.269-1.25,1.498-2.047,2.748-1.778c11.024,2.36,19.377,11.462,20.786,22.646
						c0.158,1.268-0.741,2.424-2.01,2.584C162.271,25.989,162.172,25.994,162.075,25.994z"/>
				</g>
			</g>
		</g>
		<g>
			<path fill="#FFFFFF" stroke="#199BD8" stroke-miterlimit="10" d="M162.271,26.357"/>
		</g>
		<g>
			<path fill="#FFFFFF" stroke="#199BD8" stroke-miterlimit="10" d="M155.069,26.357"/>
		</g>
		<g>
			<path fill="#FFFFFF" stroke="#199BD8" stroke-miterlimit="10" d="M155.069,26.357"/>
		</g>
	</g>
	<g>
		<path fill="#FFFFFF" d="M86.181,39.851c0.246,0,0.41,0.121,0.496,0.36l1.003,2.852l1.036-2.94
			c0.025-0.081,0.079-0.146,0.158-0.195c0.08-0.052,0.181-0.076,0.306-0.076c0.073,0,0.14,0.013,0.202,0.038
			c0.062,0.024,0.117,0.061,0.163,0.105c0.047,0.045,0.084,0.098,0.112,0.157c0.027,0.058,0.041,0.121,0.041,0.187
			c0,0.06-0.014,0.121-0.04,0.188l-1.496,4.255c-0.028,0.09-0.084,0.166-0.162,0.226c-0.08,0.06-0.187,0.089-0.32,0.089
			c-0.116,0-0.219-0.031-0.307-0.095c-0.09-0.062-0.148-0.136-0.174-0.22l-1.019-2.893l-1.015,2.893
			c-0.029,0.09-0.089,0.166-0.179,0.226c-0.088,0.06-0.19,0.089-0.305,0.089c-0.116,0-0.216-0.029-0.305-0.089
			c-0.087-0.06-0.147-0.136-0.182-0.226l-1.495-4.255c-0.022-0.068-0.034-0.131-0.034-0.188c0-0.065,0.014-0.129,0.04-0.187
			c0.025-0.06,0.061-0.112,0.107-0.157c0.047-0.045,0.102-0.081,0.165-0.105c0.062-0.025,0.13-0.038,0.201-0.038
			c0.12,0,0.219,0.027,0.3,0.079c0.08,0.055,0.135,0.117,0.165,0.192l1.038,2.935l1.001-2.846
			C85.771,39.972,85.936,39.851,86.181,39.851z"/>
		<path fill="#FFFFFF" d="M94.755,43.62c0.148,0,0.271,0.045,0.367,0.136c0.098,0.094,0.147,0.211,0.147,0.351
			c0,0.138-0.05,0.253-0.15,0.352c-0.509,0.424-1.112,0.637-1.807,0.637c-0.763,0-1.415-0.257-1.954-0.768
			c-0.541-0.513-0.812-1.13-0.812-1.854c0-0.723,0.271-1.342,0.812-1.854c0.539-0.513,1.191-0.769,1.954-0.769
			c0.758,0,1.41,0.256,1.957,0.769c0.268,0.252,0.471,0.534,0.606,0.844c0.135,0.312,0.203,0.647,0.203,1.01
			c0,0.141-0.05,0.257-0.151,0.351c-0.1,0.09-0.223,0.137-0.367,0.137h-3.911c0.057,0.172,0.137,0.328,0.245,0.47
			c0.11,0.143,0.237,0.263,0.386,0.366c0.145,0.1,0.305,0.181,0.483,0.236c0.175,0.055,0.359,0.083,0.549,0.083
			c0.219,0,0.417-0.03,0.599-0.093c0.18-0.062,0.349-0.155,0.503-0.281C94.512,43.664,94.628,43.624,94.755,43.62z M94.977,41.986
			c-0.056-0.172-0.14-0.327-0.248-0.469c-0.112-0.143-0.239-0.265-0.387-0.367c-0.146-0.101-0.308-0.18-0.485-0.236
			c-0.174-0.056-0.356-0.084-0.544-0.084c-0.187,0-0.368,0.028-0.546,0.084c-0.18,0.057-0.342,0.136-0.49,0.236
			c-0.148,0.103-0.275,0.225-0.386,0.367c-0.108,0.142-0.188,0.297-0.241,0.469H94.977z"/>
		<path fill="#FFFFFF" d="M97.9,40.432c0.49-0.389,1.068-0.581,1.733-0.581c0.758,0,1.409,0.256,1.956,0.769
			c0.269,0.252,0.471,0.534,0.606,0.844c0.136,0.312,0.203,0.647,0.203,1.01c0,0.73-0.27,1.35-0.81,1.854
			c-0.547,0.511-1.198,0.768-1.956,0.768c-0.764,0-1.415-0.257-1.955-0.768c-0.54-0.513-0.811-1.13-0.811-1.854v-4.382
			c0-0.14,0.049-0.256,0.146-0.349c0.098-0.092,0.219-0.138,0.367-0.138c0.145,0,0.268,0.046,0.369,0.138
			c0.1,0.093,0.149,0.209,0.149,0.349V40.432z M99.634,44.115c0.241,0,0.466-0.044,0.678-0.13c0.209-0.089,0.393-0.206,0.55-0.355
			c0.155-0.15,0.279-0.323,0.37-0.522c0.092-0.198,0.135-0.41,0.135-0.635c0-0.226-0.043-0.437-0.135-0.634
			c-0.091-0.199-0.215-0.373-0.37-0.521c-0.157-0.151-0.341-0.27-0.55-0.357c-0.212-0.089-0.437-0.132-0.678-0.132
			c-0.243,0-0.472,0.043-0.682,0.132c-0.21,0.088-0.394,0.205-0.547,0.353c-0.156,0.149-0.279,0.322-0.369,0.522
			S97.9,42.247,97.9,42.473c0,0.225,0.046,0.438,0.136,0.637c0.09,0.2,0.213,0.375,0.369,0.523c0.153,0.147,0.337,0.264,0.547,0.353
			C99.162,44.072,99.391,44.115,99.634,44.115z"/>
	</g>
</g>
</svg>
